<svg width="30" height="30" viewBox="0 0 30 30" fill="none" xmlns="http://www.w3.org/2000/svg">
<g id="light_mode">
<path id="icon" d="M15 18.75C16.0417 18.75 16.9271 18.3854 17.6562 17.6562C18.3854 16.9271 18.75 16.0417 18.75 15C18.75 13.9583 18.3854 13.0729 17.6562 12.3438C16.9271 11.6146 16.0417 11.25 15 11.25C13.9583 11.25 13.0729 11.6146 12.3438 12.3438C11.6146 13.0729 11.25 13.9583 11.25 15C11.25 16.0417 11.6146 16.9271 12.3438 17.6562C13.0729 18.3854 13.9583 18.75 15 18.75ZM15 21.25C13.2708 21.25 11.7969 20.6406 10.5781 19.4219C9.35938 18.2031 8.75 16.7292 8.75 15C8.75 13.2708 9.35938 11.7969 10.5781 10.5781C11.7969 9.35938 13.2708 8.75 15 8.75C16.7292 8.75 18.2031 9.35938 19.4219 10.5781C20.6406 11.7969 21.25 13.2708 21.25 15C21.25 16.7292 20.6406 18.2031 19.4219 19.4219C18.2031 20.6406 16.7292 21.25 15 21.25ZM6.25 16.25H1.25V13.75H6.25V16.25ZM28.75 16.25H23.75V13.75H28.75V16.25ZM13.75 6.25V1.25H16.25V6.25H13.75ZM13.75 28.75V23.75H16.25V28.75H13.75ZM8 9.6875L4.84375 6.65625L6.625 4.8125L9.625 7.9375L8 9.6875ZM23.375 25.1875L20.3438 22.0312L22 20.3125L25.1562 23.3438L23.375 25.1875ZM20.3125 8L23.3438 4.84375L25.1875 6.625L22.0625 9.625L20.3125 8ZM4.8125 23.375L7.96875 20.3438L9.6875 22L6.65625 25.1562L4.8125 23.375Z" fill="#FEF7FF"/>
</g>
</svg>
